# xmcd
#
# Track frame offsets:
#	150
#	18135
#	31152
#	59995
#	83622
#	99637
#	115362
#	135522
#	153112
#	166387
#	185727
#	203760
#
# Disc length: 2978 seconds
#
# Revision: 1
# Processed by: cddbd v1.4PL0 Copyright (c) Steve Scherf et al.
# Submitted via: CDmax 1.9
#
DISCID=980ba00c
DTITLE=Kevin Welch and The Danes - Millionaire
DYEAR=2001
DGENRE=Blues
TTITLE0=Millionaire
TTITLE1=Witness
TTITLE2=Choose To Believe
TTITLE3=Long Cold Train
TTITLE4=Blanket Of Snow
TTITLE5=Killing Myself
TTITLE6=Glorious Bounties
TTITLE7=The Sun King And The Winter Moon
TTITLE8=I Can Sure Love You
TTITLE9=Queen Of The Slipstream
TTITLE10=When The Sun Shines Down On Me
TTITLE11=Stray Dog
EXTD=
EXTT0=
EXTT1=
EXTT2=
EXTT3=
EXTT4=
EXTT5=
EXTT6=
EXTT7=
EXTT8=
EXTT9=
EXTT10=
EXTT11=
PLAYORDER=
